# AST/ASF file generated using VICON BodyLanguage
# -----------------------------------------------
:version 1.10
:name VICON
:units
  mass 1.0
  length 0.45
  angle deg
:documentation
   .ast/.asf automatically generated from VICON data using
   VICON BodyBuilder and BodyLanguage model FoxedUp or BRILLIANT.MOD
:root
   order TX TY TZ RX RY RZ
   axis XYZ
   position 0 0 0  
   orientation 0 0 0 
:bonedata
  begin
     id 1 
     name lhipjoint
     direction 0.677091 -0.635792 0.370561 
     length 2.74323 
     axis 0 0 0  XYZ
  end
  begin
     id 2 
     name lfemur
     direction 0.34202 -0.939693 0  
     length 7.44995  
     axis 0 0 20  XYZ
    dof rx ry rz
    limits (-160.0 20.0)
           (-70.0 70.0)
           (-60.0 70.0)
  end
  begin
     id 3 
     name ltibia
     direction 0.34202 -0.939693 0   
     length 7.34467   
     axis 0 0 20   XYZ
    dof rx
    limits (-10.0 170.0)
  end
  begin
     id 4 
     name lfoot
     direction 0.101953 -0.280114 0.954537   
     length 1.72105   
     axis -90 7.62852e-016 20   XYZ
    dof rx rz
    limits (-45.0 90.0)
           (-70.0 20.0)
  end
  begin
     id 5 
     name ltoes
     direction 1.53537e-011 -4.21915e-011 1   
     length 0.865872   
     axis -90 7.62852e-016 20   XYZ
    dof rx
    limits (-90.0 20.0)
  end
  begin
     id 6 
     name rhipjoint
     direction -0.695735 -0.620586 0.361699   
     length 2.81045  
     axis 0 0 0  XYZ 
  end
  begin
     id 7 
     name rfemur
     direction -0.34202 -0.939693 0   
     length 7.29387   
     axis 0 0 -20   XYZ
    dof rx ry rz
    limits (-160.0 20.0)
           (-70.0 70.0)
           (-70.0 60.0)
  end
  begin
     id 8 
     name rtibia
     direction -0.34202 -0.939693 0   
     length 7.44935   
     axis 0 0 -20   XYZ
    dof rx
    limits (-10.0 170.0)
 end
 begin
     id 9 
     name rfoot
     direction -0.104163 -0.286184 0.952496   
     length 1.77731  
     axis -90 -7.62852e-016 -20   XYZ
    dof rx rz
    limits (-45.0 90.0)
           (-20.0 70.0)
  end
  begin
     id 10 
     name rtoes
     direction -1.5355e-011 -4.21888e-011 1   
     length 0.892424   
     axis -90 -7.62852e-016 -20   XYZ
    dof rx
    limits (-90.0 20.0)
  end
  begin
     id 11 
     name lowerback
     direction 0.0100202 0.997226 -0.0737589   
     length 2.16892   
     axis 0 0 0   XYZ
    dof rx ry rz
    limits (-20.0 45.0)
           (-30.0 30.0)
           (-30.0 30.0)
  end
  begin
     id 12 
     name upperback
     direction 0.00432398 0.999988 -0.00215019   
     length 2.17326   
     axis 0 0 0   XYZ
    dof rx ry rz
    limits (-20.0 45.0)
           (-30.0 30.0)
           (-30.0 30.0)
  end
  begin
     id 13 
     name thorax
     direction -0.00195047 0.999485 0.0320434   
     length 2.18139   
     axis 0 0 0   XYZ
    dof rx ry rz
    limits (-20.0 45.0)
           (-30.0 30.0)
           (-30.0 30.0)
  end
  begin
     id 14 
     name lowerneck
     direction 0.00782762 0.986241 0.165128   
     length 1.88415   
     axis 0 0 0   XYZ
    dof rx ry rz
    limits (-20.0 45.0)
           (-30.0 30.0)
           (-30.0 30.0)
  end
  begin
     id 15 
     name upperneck
     direction 0.00988667 0.981098 -0.193258   
     length 1.9242   
     axis 0 0 0   XYZ
    dof rx ry rz
    limits (-20.0 45.0)
           (-30.0 30.0)
           (-30.0 30.0)
  end
  begin
     id 16
     name head
     direction 0.00252199 0.996513 -0.0833958  
     length 1.93887  
     axis 0 0 0   XYZ
    dof rx ry rz
    limits (-20.0 45.0)
           (-30.0 30.0)
           (-30.0 30.0)
  end
  begin
     id 17 
     name lclavicle
     direction 0.929492 0.368193 -0.0218667  
     length 3.5955  
     axis 0 0 0   XYZ
    dof ry rz
    limits (-20.0 10.0)
           (0.0 20.0)
  end
  begin
     id 18 
     name lhumerus
     direction 1 -4.48972e-011 1.41911e-027   
     length 5.2795   
     axis 180 -30 -90   XYZ
    dof rx ry rz
    limits (-60.0 90.0)
           (-90.0 90.0)
           (-90.0 90.0)
  end
  begin
     id 19
     name lradius
     direction 1 -4.48963e-011 7.05772e-027   
     length 3.53504   
     axis 180 -30 -90   XYZ
    dof rx
    limits (-10.0 170.0)
  end
  begin
     id 20
     name lwrist
     direction 1 -4.48957e-011 9.54866e-027   
     length 1.76752   
     axis -7.69462e-015 90 90   XYZ
    dof ry
    limits (-180.0 0.0)
 end
  begin
     id 21 
     name lhand
     direction 1 -4.48979e-011 1.90973e-026   
     length 0.667948   
     axis -1.21857e-014 90 90   XYZ
    dof rx rz
    limits (-90.0 90.0)
           (-45.0 45.0)
  end
  begin
     id 22 
     name lfingers
     direction 1 -4.48987e-011 3.81946e-026   
     length 0.538517   
     axis -2.43714e-014 90 90   XYZ
    dof rx
    limits (0.0 90.0)
  end
  begin
     id 23
     name lthumb
     direction 0.707107 -6.34962e-011 0.707107   
     length 0.773206   
     axis -90 45 2.85299e-015   XYZ
    dof rx rz
    limits (-45.0 45.0)
           (-45.0 45.0)
  end
  begin
     id 24 
     name rclavicle
     direction -0.898763 0.414256 -0.143584   
     length 3.5176  
     axis 0 0 0   XYZ 
    dof ry rz
    limits (-10.0 20.0)
           (-20.0 0.0)
  end
  begin
     id 25 
     name rhumerus
     direction -1 -4.48971e-011 1.129e-027  
     length 5.25035   
     axis 180 30 90   XYZ
    dof rx ry rz
    limits (-90.0 60.0)
           (-90.0 90.0)
           (-90.0 90.0)
  end
  begin
     id 26 
     name rradius
     direction -1 -4.48955e-011 6.34664e-027   
     length 3.58884   
     axis 180 30 90   XYZ
    dof rx
    limits (-10.0 170.0)
  end
  begin
     id 27 
     name rwrist
     direction -1 -4.48966e-011 9.54866e-027   
     length 1.79442   
     axis -7.69462e-015 -90 -90   XYZ
    dof ry
    limits (-180.0 0.0)
  end
  begin
     id 28
     name rhand
     direction -1 -4.48973e-011 1.90973e-026   
     length 0.779235   
     axis -1.21857e-014 -90 -90   XYZ
    dof rx rz
    limits (-90.0 90.0)
           (-45.0 45.0)
  end
  begin
     id 29
     name rfingers
     direction -1 -4.48984e-011 3.81946e-026   
     length 0.62824   
     axis -2.43714e-014 -90 -90   XYZ
    dof rx
    limits (0.0 90.0)
  end
  begin
     id 30
     name rthumb
     direction -0.707107 -6.34968e-011 0.707107   
     length 0.90203   
     axis -90 -45 -2.85299e-015   XYZ
    dof rx rz
    limits (-45.0 45.0)
           (-45.0 45.0)
  end
:hierarchy
  begin
    root lhipjoint rhipjoint lowerback
    lhipjoint lfemur
    lfemur ltibia
    ltibia lfoot
    lfoot ltoes
    rhipjoint rfemur
    rfemur rtibia
    rtibia rfoot
    rfoot rtoes
    lowerback upperback
    upperback thorax
    thorax lowerneck lclavicle rclavicle
    lowerneck upperneck
    upperneck head
    lclavicle lhumerus
    lhumerus lradius
    lradius lwrist
    lwrist lhand lthumb
    lhand lfingers
    rclavicle rhumerus
    rhumerus rradius
    rradius rwrist
    rwrist rhand rthumb
    rhand rfingers
  end

#!OML:ASF I:\Random Stuff\random\construction\7_22_03\Session 2\subj1.ASF
:FULLY-SPECIFIED
:DEGREES
159
root 6.25926 17.7638 1.46349 14.1127 51.467 4.20206
lowerback 15.8658 -1.343 2.93057
upperback 1.91242 -0.947314 3.12827
thorax -6.85512 -0.461915 1.87298
lowerneck -16.9308 -7.65153 -9.6183
upperneck 26.2732 -11.7586 13.2412
head 13.0439 -4.46144 4.79549
rclavicle 8.50798e-014 -1.74931e-014
rhumerus -2.59319 -18.352 -78.4282
rradius 23.4853
rwrist -7.98964
rhand -31.3242 19.6385
rfingers 7.12502
rthumb -4.59623 -10.2917
lclavicle 8.50798e-014 -1.74931e-014
lhumerus -9.51604 -4.61407 93.4468
lradius 34.579
lwrist 25.5941
lhand -17.6352 49.2707
lfingers 7.12502
lthumb 8.62239 -640.925
rfemur -27.7044 1.37536 18.7984
rtibia 18.6623
rfoot -1.15449 -9.68938
rtoes -10.1517
lfemur -25.5418 16.7976 -17.8948
ltibia 71.9663
lfoot -13.1734 -11.9769
ltoes -33.9894
160
root 6.34894 17.765 1.57525 13.6391 50.1037 3.51173
lowerback 15.7873 -1.25947 3.35479
upperback 1.81315 -0.764358 3.16604
thorax -6.92573 -0.386089 1.6346
lowerneck -17.2107 -7.44932 -9.29966
upperneck 26.8646 -11.474 12.7865
head 13.2448 -4.33302 4.62936
rclavicle 3.69739e-014 -6.36111e-015
rhumerus -1.90379 -17.911 -79.2937
rradius 23.3391
rwrist -6.85135
rhand -31.8016 19.4397
rfingers 7.12502
rthumb -5.05718 -10.48
lclavicle 3.69739e-014 -6.36111e-015
lhumerus -8.0727 -4.03684 93.9829
lradius 33.46
lwrist 23.3319
lhand -16.7449 49.237
lfingers 7.12502
lthumb 9.48144 -640.996
rfemur -27.5471 1.63966 19.4961
rtibia 18.8346
rfoot -1.90804 -8.69079
rtoes -9.6027
lfemur -28.4139 18.0063 -19.0624
ltibia 75.3385
lfoot -14.6476 -14.8033
ltoes -37.0435
161
root 6.442 17.7621 1.68295 13.3813 48.7111 3.05332
lowerback 15.7592 -1.17574 3.583
upperback 1.67176 -0.610737 3.20676
thorax -7.06486 -0.320612 1.51886
lowerneck -17.5994 -7.25797 -8.97905
upperneck 27.5139 -11.165 12.2037
head 13.4847 -4.20628 4.41451
rclavicle 3.93594e-014 -4.45278e-014
rhumerus -1.33398 -17.324 -80.0944
rradius 23.115
rwrist -5.54473
rhand -32.3867 19.1666
rfingers 7.12502
rthumb -5.62214 -10.7388
lclavicle 3.93594e-014 -4.45278e-014
lhumerus -6.79474 -3.44724 94.557
lradius 32.5935
lwrist 22.1421
lhand -16.6351 50.2746
lfingers 7.12502
lthumb 9.5874 -639.964
rfemur -27.5646 1.4782 20.1538
rtibia 19.2944
rfoot -2.86068 -7.42584
rtoes -10.3054
lfemur -31.3561 18.9692 -20.4653
ltibia 78.1372
lfoot -15.7067 -17.6054
ltoes -39.4162
162
root 6.53406 17.7516 1.79226 13.1293 47.2576 2.66031
lowerback 15.8531 -1.07875 3.66755
upperback 1.51821 -0.456761 3.23931
thorax -7.28264 -0.252034 1.47824
lowerneck -17.9772 -7.03111 -8.68165
upperneck 28.1126 -10.8148 11.7007
head 13.7104 -4.05856 4.24121
rclavicle 5.92378e-014 -3.02153e-014
rhumerus -0.925932 -16.5885 -80.8537
rradius 22.963
rwrist -4.48581
rhand -32.818 18.6939
rfingers 7.12502
rthumb -6.03846 -11.2001
lclavicle 5.92378e-014 -3.02153e-014
lhumerus -5.72009 -2.82663 95.0533
lradius 31.9749
lwrist 21.8527
lhand -16.902 51.9253
lfingers 7.12502
lthumb 9.32988 -638.301
rfemur -27.6247 1.32924 20.7583
rtibia 19.951
rfoot -3.96172 -6.19926
rtoes -10.7307
lfemur -34.2081 19.7639 -21.902
ltibia 80.3636
lfoot -16.6426 -20.0154
ltoes -40.3801
163
root 6.62235 17.7343 1.90208 12.7676 45.7673 2.21126
lowerback 16.06 -0.979663 3.76405
upperback 1.38527 -0.293414 3.23906
thorax -7.54112 -0.180199 1.39472
lowerneck -18.2714 -6.7746 -8.46809
upperneck 28.5935 -10.4676 11.4541
head 13.8998 -3.89639 4.18362
rclavicle -1.15295e-014 -4.13472e-014
rhumerus -0.590415 -15.7768 -81.6379
rradius 22.8029
rwrist -3.63091
rhand -32.7835 17.994
rfingers 7.12502
rthumb -6.0052 -11.9009
lclavicle -1.15295e-014 -4.13472e-014
lhumerus -4.85372 -2.4995 95.4207
lradius 31.6216
lwrist 22.1464
lhand -17.3412 53.689
lfingers 7.12502
lthumb 8.90609 -636.519
rfemur -27.7019 1.38366 21.3511
rtibia 20.7796
rfoot -5.05779 -5.11034
rtoes -10.5153
lfemur -36.9762 20.4826 -23.198
ltibia 82.0771
lfoot -17.6714 -21.5129
ltoes -40.5489
164
root 6.70764 17.7149 2.00857 12.4585 44.3079 1.76877
lowerback 16.2697 -0.90455 3.86609
upperback 1.26021 -0.161254 3.22426
thorax -7.79284 -0.124257 1.29819
lowerneck -18.5661 -6.5157 -8.28208
upperneck 29.023 -10.1391 11.3197
head 14.0841 -3.73352 4.17199
rclavicle -3.26007e-014 -2.8625e-014
rhumerus -0.259204 -14.8848 -82.4764
rradius 22.5452
rwrist -2.76252
rhand -32.5499 17.2748
rfingers 7.12502
rthumb -5.77966 -12.6264
lclavicle -3.26007e-014 -2.8625e-014
lhumerus -4.13131 -2.63457 95.6472
lradius 31.5752
lwrist 23.0144
lhand -17.8202 55.236
lfingers 7.12502
lthumb 8.4439 -634.953
rfemur -27.8124 1.58912 21.8937
rtibia 21.6285
rfoot -6.08738 -4.18019
rtoes -8.88758
lfemur -39.7685 20.9959 -24.3758
ltibia 83.2508
lfoot -18.5902 -22.0208
ltoes -40.568
165
root 6.79146 17.694 2.10925 12.3382 42.862 1.50161
lowerback 16.4299 -0.834258 3.88719
upperback 1.17101 -0.0587678 3.16485
thorax -7.97798 -0.0804291 1.20364
lowerneck -18.9406 -6.2594 -8.01955
upperneck 29.437 -9.80865 11.1065
head 14.2718 -3.57042 4.11318
rclavicle 2.98177e-014 -1.74931e-014
rhumerus 0.0325046 -13.7838 -83.2995
rradius 22.2678
rwrist -2.06032
rhand -32.578 16.707
rfingers 7.12502
rthumb -5.80679 -13.1935
lclavicle 2.98177e-014 -1.74931e-014
lhumerus -3.45186 -3.23746 95.7306
lradius 31.7314
lwrist 24.1045
lhand -18.892 56.2841
lfingers 7.12502
lthumb 7.40941 -633.866
rfemur -27.9528 1.86661 22.2584
rtibia 22.4423
rfoot -7.00321 -3.29548
rtoes -6.86516
lfemur -42.5265 21.2677 -25.5549
ltibia 83.8605
lfoot -19.3981 -21.8234
ltoes -40.9112
166
root 6.8944 17.6841 2.21171 12.1342 41.2251 1.36902
lowerback 16.597 -0.730229 3.9187
upperback 1.20879 0.078439 3.02893
thorax -8.02812 -0.019544 1.00961
lowerneck -19.3034 -5.98354 -7.72013
upperneck 29.8235 -9.43807 10.8283
head 14.4365 -3.3968 4.02766
rclavicle -4.37326e-014 9.54166e-015
rhumerus 0.253795 -12.6353 -84.0573
rradius 21.943
rwrist -1.60308
rhand -32.6545 16.7866
rfingers 7.12502
rthumb -5.88068 -13.1118
lclavicle -4.37326e-014 9.54166e-015
lhumerus -2.90524 -4.38073 95.6689
lradius 32.0684
lwrist 25.1309
lhand -20.2134 56.5524
lfingers 7.12502
lthumb 6.13381 -633.556
rfemur -27.8568 2.08967 22.4808
rtibia 23.1655
rfoot -7.81448 -2.1526
rtoes -7.35628
lfemur -44.745 21.56 -26.6555
ltibia 83.7957
lfoot -20.0966 -21.1133
ltoes -40.9913
167
root 7.00088 17.678 2.31108 12.0158 39.6178 1.30602
lowerback 16.7131 -0.641526 3.92889
upperback 1.25807 0.187251 2.88842
thorax -8.03687 0.028813 0.827917
lowerneck -19.6478 -5.71013 -7.39682
upperneck 30.1974 -9.07417 10.5345
head 14.5944 -3.22725 3.92995
rclavicle -3.97569e-016 2.22639e-014
rhumerus 0.438158 -11.6958 -84.7885
rradius 21.4804
rwrist -1.11852
rhand -32.6129 18.0908
rfingers 7.12502
rthumb -5.84044 -11.8087
lclavicle -3.97569e-016 2.22639e-014
lhumerus -2.49449 -5.95739 95.4749
lradius 32.5607
lwrist 25.8037
lhand -20.4214 55.9936
lfingers 7.12502
lthumb 5.93298 -634.109
rfemur -27.7483 2.35756 22.6108
rtibia 23.7927
rfoot -8.59811 -1.13794
rtoes -7.45564
lfemur -46.7871 21.7724 -27.6347
ltibia 83.1513
lfoot -20.6196 -20.0235
ltoes -41.0912
168
root 7.11344 17.6683 2.4096 11.8906 38.0387 1.26773
lowerback 16.7127 -0.602657 3.99857
upperback 1.39897 0.226213 2.69678
thorax -7.88142 0.0435332 0.571173
lowerneck -19.9798 -5.40588 -7.0529
upperneck 30.5134 -8.70603 10.3501
head 14.7338 -3.04153 3.87343
rclavicle 2.78299e-015 2.54444e-014
rhumerus 0.646885 -10.712 -85.6108
rradius 20.9371
rwrist -0.299329
rhand -32.9538 19.6177
rfingers 7.12502
rthumb -6.16963 -10.2724
lclavicle 2.78299e-015 2.54444e-014
lhumerus -1.99496 -7.86851 95.0157
lradius 33.0867
lwrist 26.1218
lhand -20.1662 55.2703
lfingers 7.12502
lthumb 6.17936 -634.84
rfemur -27.5312 2.61326 22.706
rtibia 24.3245
rfoot -9.35234 -0.22942
rtoes -8.04776
lfemur -48.5551 21.8655 -28.4148
ltibia 81.9965
lfoot -21.003 -18.7397
ltoes -41.008
169
root 7.23031 17.6587 2.50812 11.728 36.4745 1.23937
lowerback 16.6832 -0.624747 4.05975
upperback 1.58018 0.180338 2.50094
thorax -7.66813 0.0195257 0.334139
lowerneck -20.2013 -5.02061 -6.75572
upperneck 30.8452 -8.24105 10.2607
head 14.8562 -2.81116 3.88682
rclavicle 5.96354e-015 1.59028e-014
rhumerus 0.754862 -9.33143 -86.4239
rradius 20.4963
rwrist 0.646921
rhand -34.0432 20.1136
rfingers 7.12502
rthumb -7.22123 -9.74322
lclavicle 5.96354e-015 1.59028e-014
lhumerus -1.52452 -10.062 94.3097
lradius 33.7419
lwrist 26.4282
lhand -20.2696 54.8271
lfingers 7.12502
lthumb 6.07957 -635.28
rfemur -27.2413 2.78148 22.7989
rtibia 24.8266
rfoot -9.84482 0.731618
rtoes -14.7376
lfemur -50.002 21.8785 -28.9599
ltibia 80.3728
lfoot -21.2125 -17.3475
ltoes -40.8039
170
root 7.34983 17.6492 2.60672 11.5578 34.9524 1.23633
lowerback 16.7618 -0.639084 3.97313
upperback 1.69082 0.137197 2.4175
thorax -7.59242 0.00146219 0.302816
lowerneck -20.2898 -4.64034 -6.52831
upperneck 31.2984 -7.72912 10.0482
head 14.9974 -2.58797 3.87618
rclavicle 2.18663e-014 9.54166e-015
rhumerus 0.590859 -7.47841 -86.9221
rradius 20.3309
rwrist 0.772218
rhand -35.3334 20.1881
rfingers 7.12502
rthumb -8.46655 -9.6222
lclavicle 2.18663e-014 9.54166e-015
lhumerus -1.31437 -12.371 93.6809
lradius 34.6144
lwrist 26.5805
lhand -20.5068 54.5418
lfingers 7.12502
lthumb 5.85049 -635.559
rfemur -26.8632 3.19113 22.7456
rtibia 25.2652
rfoot -10.4057 1.35297
rtoes -19.8117
lfemur -51.108 21.8009 -29.3034
ltibia 78.291
lfoot -21.2454 -15.9005
ltoes -40.8259
171
root 7.47345 17.6384 2.70815 11.3711 33.5001 1.21389
lowerback 16.7936 -0.678077 3.87538
upperback 1.8116 0.0593384 2.36555
thorax -7.48088 -0.0319123 0.319069
lowerneck -20.297 -4.2522 -6.23031
upperneck 31.7403 -7.18706 9.71073
head 15.1052 -2.36412 3.80455
rclavicle 1.66979e-014 1.19271e-014
rhumerus 0.302599 -5.16354 -87.2871
rradius 20.5119
rwrist -0.362223
rhand -36.17 20.3756
rfingers 7.12502
rthumb -9.27385 -9.40041
lclavicle 1.66979e-014 1.19271e-014
lhumerus -1.12944 -14.4568 93.0638
lradius 35.4806
lwrist 26.3329
lhand -20.8126 54.3978
lfingers 7.12502
lthumb 5.55525 -635.695
rfemur -26.3871 3.90293 22.5857
rtibia 25.6158
rfoot -11.3215 1.62393
rtoes -15.7291
lfemur -51.8759 21.5929 -29.39
ltibia 75.7955
lfoot -20.8504 -14.6491
ltoes -39.8042
172
root 7.60246 17.6304 2.81163 11.1524 32.094 1.10545
lowerback 16.7412 -0.7648 3.89092
upperback 1.96606 -0.0668717 2.30682
thorax -7.28785 -0.090796 0.273668
lowerneck -20.5124 -3.97718 -5.93427
upperneck 32.2575 -6.83126 9.42885
head 15.3273 -2.20626 3.72346
rclavicle -3.89618e-014 3.18055e-014
rhumerus 0.0328628 -2.72448 -87.6869
rradius 21.0236
rwrist -2.06654
rhand -36.4683 20.2023
rfingers 7.12502
rthumb -9.56164 -9.56071
lclavicle -3.89618e-014 3.18055e-014
lhumerus -0.890402 -16.0623 92.4388
lradius 36.2124
lwrist 25.8356
lhand -20.8954 54.5113
lfingers 7.12502
lthumb 5.47539 -635.579
rfemur -25.8567 4.54481 22.4999
rtibia 25.8492
rfoot -12.1928 2.10051
rtoes -11.6914
lfemur -52.3528 21.2743 -29.1529
ltibia 72.947
lfoot -19.984 -13.6248
ltoes -37.4001
173
root 7.73486 17.6255 2.91765 10.9542 30.6997 0.993921
lowerback 16.7034 -0.813805 3.82368
upperback 2.08657 -0.1497 2.32946
thorax -7.13866 -0.126133 0.352691
lowerneck -20.5909 -3.63303 -5.52806
upperneck 32.7211 -6.32656 8.91314
head 15.4645 -2.0097 3.54748
rclavicle 1.03368e-014 -1.59028e-015
rhumerus -0.263094 -0.527041 -87.9325
rradius 21.8087
rwrist -3.77071
rhand -36.3348 19.7536
rfingers 7.12502
rthumb -9.43282 -10.0153
lclavicle 1.03368e-014 -1.59028e-015
lhumerus -0.751342 -17.1686 92.0976
lradius 36.8812
lwrist 25.1661
lhand -20.5142 54.8649
lfingers 7.12502
lthumb 5.84342 -635.236
rfemur -25.2836 5.06775 22.4271
rtibia 25.9306
rfoot -12.8449 2.71257
rtoes -12.5739
lfemur -52.5143 20.8574 -28.6843
ltibia 69.7892
lfoot -18.7347 -12.5632
ltoes -34.7364
